<svg width="116" height="48" viewBox="0 0 116 48" fill="none" xmlns="http://www.w3.org/2000/svg">
<g opacity="0.3" filter="url(#filter0_f_165830_3571)">
<path d="M20 11.7321C21.8564 10.6603 24.1436 10.6603 26 11.7321L26.9282 12.268C28.7846 13.3398 29.9282 15.3205 29.9282 17.4641V18.5359C29.9282 20.6795 28.7846 22.6603 26.9282 23.7321L26 24.268C24.1436 25.3398 21.8564 25.3398 20 24.268L19.0718 23.7321C17.2154 22.6603 16.0718 20.6795 16.0718 18.5359V17.4641C16.0718 15.3205 17.2154 13.3398 19.0718 12.268L20 11.7321Z" fill="url(#paint0_linear_165830_3571)"/>
</g>
<g opacity="0.4" filter="url(#filter1_f_165830_3571)">
<path d="M20 16.7321C21.8564 15.6603 24.1436 15.6603 26 16.7321L27.7943 17.768C29.6507 18.8398 30.7943 20.8205 30.7943 22.9641V25.0359C30.7943 27.1795 29.6507 29.1603 27.7943 30.2321L26 31.268C24.1436 32.3398 21.8564 32.3398 20 31.268L18.2058 30.2321C16.3494 29.1603 15.2058 27.1795 15.2058 25.0359V22.9641C15.2058 20.8205 16.3494 18.8398 18.2058 17.768L20 16.7321Z" fill="url(#paint1_linear_165830_3571)"/>
</g>
<path d="M20 3.73207C21.8564 2.66027 24.1436 2.66027 26 3.73207L30.3923 6.26797C32.2487 7.33977 33.3923 9.32053 33.3923 11.4641V16.5359C33.3923 18.6795 32.2487 20.6603 30.3923 21.7321L26 24.268C24.1436 25.3398 21.8564 25.3398 20 24.268L15.6077 21.7321C13.7513 20.6603 12.6077 18.6795 12.6077 16.5359V11.4641C12.6077 9.32053 13.7513 7.33977 15.6077 6.26797L20 3.73207Z" fill="url(#paint2_linear_165830_3571)"/>
<path d="M19.6251 14.104L23.0779 8.375V8.37772L23.0787 8.375L26.5309 14.1033L26.5328 14.1041L23.08 16.1451V16.1444L23.0787 16.1452L23.0779 16.1444V16.1451L19.6251 14.104Z" fill="#030303"/>
<path d="M23.0779 19.6226V19.625L19.625 14.7593L23.0779 16.7992V16.8002L23.0787 16.7992L26.5336 14.7593L23.0787 19.625L23.0779 19.6226Z" fill="#030303"/>
<path d="M47.864 19.5C46.6427 19.5 45.7387 19.2093 45.152 18.628C44.5707 18.0413 44.28 17.1373 44.28 15.916V12.236C44.28 11.004 44.5707 10.0973 45.152 9.516C45.7333 8.92933 46.632 8.64133 47.848 8.652H49.784C50.7867 8.652 51.552 8.86 52.08 9.276C52.608 9.68667 52.9147 10.3373 53 11.228C53.032 11.452 52.9893 11.6227 52.872 11.74C52.7547 11.8573 52.584 11.916 52.36 11.916C51.9547 11.916 51.72 11.692 51.656 11.244C51.6027 10.7533 51.432 10.4227 51.144 10.252C50.8613 10.0813 50.408 9.996 49.784 9.996H47.848C47.2827 9.99067 46.8373 10.0547 46.512 10.188C46.192 10.3213 45.9627 10.5533 45.824 10.884C45.6907 11.2093 45.624 11.66 45.624 12.236V15.916C45.624 16.4867 45.6907 16.9347 45.824 17.26C45.9627 17.5853 46.1947 17.8173 46.52 17.956C46.8453 18.0893 47.2933 18.156 47.864 18.156H49.784C50.408 18.156 50.8613 18.0707 51.144 17.9C51.432 17.724 51.6027 17.3933 51.656 16.908C51.72 16.46 51.9547 16.236 52.36 16.236C52.584 16.236 52.7547 16.2947 52.872 16.412C52.9893 16.5293 53.032 16.7 53 16.924C52.9147 17.82 52.608 18.4733 52.08 18.884C51.552 19.2947 50.7867 19.5 49.784 19.5H47.864ZM57.916 19.5C56.8547 19.5 56.0653 19.244 55.548 18.732C55.036 18.22 54.78 17.436 54.78 16.38V14.524C54.78 13.452 55.036 12.6627 55.548 12.156C56.0653 11.644 56.8547 11.388 57.916 11.388H59.228C60.2947 11.388 61.084 11.644 61.596 12.156C62.108 12.668 62.364 13.4573 62.364 14.524V16.364C62.364 17.4253 62.108 18.2147 61.596 18.732C61.084 19.244 60.2947 19.5 59.228 19.5H57.916ZM56.124 16.38C56.124 17.068 56.2493 17.5373 56.5 17.788C56.7507 18.0333 57.2227 18.156 57.916 18.156H59.228C59.9267 18.156 60.3987 18.0307 60.644 17.78C60.8947 17.5293 61.02 17.0573 61.02 16.364V14.524C61.02 13.8253 60.8947 13.3533 60.644 13.108C60.3987 12.8573 59.9267 12.732 59.228 12.732H57.916C57.452 12.732 57.0893 12.7853 56.828 12.892C56.572 12.9933 56.3907 13.1747 56.284 13.436C56.1773 13.692 56.124 14.0547 56.124 14.524V16.38ZM68.0566 19.5C66.9953 19.5 66.206 19.244 65.6886 18.732C65.1766 18.2147 64.9206 17.4253 64.9206 16.364V14.524C64.9206 13.4573 65.1766 12.668 65.6886 12.156C66.206 11.644 66.9953 11.388 68.0566 11.388H71.1606V8.908C71.1606 8.46 71.3846 8.236 71.8326 8.236C72.2806 8.236 72.5046 8.46 72.5046 8.908V18.828C72.5046 19.276 72.2806 19.5 71.8326 19.5C71.3846 19.5 71.1606 19.276 71.1606 18.828V18.716C70.91 18.972 70.582 19.1667 70.1766 19.3C69.7713 19.4333 69.2673 19.5 68.6646 19.5H68.0566ZM68.0566 18.156H68.6646C69.3686 18.156 69.9606 18.0653 70.4406 17.884C70.9206 17.7027 71.1606 17.4253 71.1606 17.052V12.732H68.0566C67.3633 12.732 66.8913 12.86 66.6406 13.116C66.39 13.3667 66.2646 13.836 66.2646 14.524V16.364C66.2646 17.0573 66.39 17.5293 66.6406 17.78C66.8966 18.0307 67.3686 18.156 68.0566 18.156ZM76.6396 15.996V16.38C76.6396 17.068 76.765 17.5373 77.0156 17.788C77.2663 18.0333 77.7383 18.156 78.4316 18.156H79.7436C80.2876 18.156 80.6903 18.1053 80.9516 18.004C81.213 17.9027 81.3863 17.724 81.4716 17.468C81.5303 17.2653 81.6103 17.1107 81.7116 17.004C81.8183 16.8973 81.9783 16.844 82.1916 16.844C82.4156 16.844 82.5863 16.9027 82.7036 17.02C82.821 17.1373 82.8583 17.308 82.8156 17.532C82.6983 18.1933 82.3836 18.6867 81.8716 19.012C81.3596 19.3373 80.6503 19.5 79.7436 19.5H78.4316C77.3703 19.5 76.581 19.244 76.0636 18.732C75.5516 18.22 75.2956 17.436 75.2956 16.38V14.524C75.2956 13.4413 75.5516 12.6467 76.0636 12.14C76.581 11.628 77.3703 11.3773 78.4316 11.388H79.7436C80.8103 11.388 81.5996 11.644 82.1116 12.156C82.6236 12.6627 82.8796 13.452 82.8796 14.524V15.324C82.8796 15.772 82.6556 15.996 82.2076 15.996H76.6396ZM78.4316 12.732C77.7383 12.7213 77.2663 12.8413 77.0156 13.092C76.765 13.3427 76.6396 13.82 76.6396 14.524V14.652H81.5356V14.524C81.5356 13.8253 81.4103 13.3533 81.1596 13.108C80.9143 12.8573 80.4423 12.732 79.7436 12.732H78.4316ZM86.4923 19.5C86.0443 19.5 85.8203 19.276 85.8203 18.828V9.324C85.8203 8.876 86.0443 8.652 86.4923 8.652C86.7216 8.652 86.9456 8.78533 87.1643 9.052L93.5963 17.34H93.2603V9.324C93.2603 8.876 93.4843 8.652 93.9323 8.652C94.3803 8.652 94.6043 8.876 94.6043 9.324V18.828C94.6043 19.276 94.3803 19.5 93.9323 19.5C93.6923 19.5 93.4683 19.3667 93.2603 19.1L86.8283 10.812H87.1643V18.828C87.1643 19.276 86.9403 19.5 86.4923 19.5ZM98.6016 19.5C98.1536 19.5 97.9296 19.276 97.9296 18.828V9.324C97.9296 8.876 98.1536 8.652 98.6016 8.652H104.49C104.698 8.652 104.86 8.71333 104.978 8.836C105.1 8.95333 105.162 9.116 105.162 9.324C105.162 9.772 104.938 9.996 104.49 9.996H99.2736V13.356H102.49C102.938 13.356 103.162 13.58 103.162 14.028C103.162 14.476 102.938 14.7 102.49 14.7H99.2736V18.828C99.2736 19.276 99.0496 19.5 98.6016 19.5ZM110.225 19.5C110.001 19.5 109.833 19.444 109.72 19.332C109.609 19.22 109.553 19.052 109.553 18.828V10.012H106.449C106.225 10.012 106.057 9.956 105.945 9.844C105.833 9.732 105.777 9.564 105.777 9.34C105.777 9.116 105.833 8.948 105.945 8.836C106.057 8.724 106.225 8.668 106.449 8.668H114.001C114.225 8.668 114.393 8.724 114.505 8.836C114.617 8.948 114.673 9.116 114.673 9.34C114.673 9.564 114.617 9.732 114.505 9.844C114.393 9.956 114.225 10.012 114.001 10.012H110.897V18.828C110.897 19.0413 110.838 19.2067 110.721 19.324C110.609 19.4413 110.443 19.5 110.225 19.5Z" fill="white"/>
<defs>
<filter id="filter0_f_165830_3571" x="10.0718" y="4.92822" width="25.8564" height="26.1436" filterUnits="userSpaceOnUse" color-interpolation-filters="sRGB">
<feFlood flood-opacity="0" result="BackgroundImageFix"/>
<feBlend mode="normal" in="SourceGraphic" in2="BackgroundImageFix" result="shape"/>
<feGaussianBlur stdDeviation="3" result="effect1_foregroundBlur_165830_3571"/>
</filter>
<filter id="filter1_f_165830_3571" x="0.205811" y="0.928223" width="45.5884" height="46.1436" filterUnits="userSpaceOnUse" color-interpolation-filters="sRGB">
<feFlood flood-opacity="0" result="BackgroundImageFix"/>
<feBlend mode="normal" in="SourceGraphic" in2="BackgroundImageFix" result="shape"/>
<feGaussianBlur stdDeviation="7.5" result="effect1_foregroundBlur_165830_3571"/>
</filter>
<linearGradient id="paint0_linear_165830_3571" x1="12.2272" y1="-5.4012" x2="29.3015" y2="-3.09315" gradientUnits="userSpaceOnUse">
<stop stop-color="#FF8D8D"/>
<stop offset="1" stop-color="#F7FC0E"/>
</linearGradient>
<linearGradient id="paint1_linear_165830_3571" x1="10.8807" y1="-2.71029" x2="30.0991" y2="-0.149748" gradientUnits="userSpaceOnUse">
<stop stop-color="#FF8D8D"/>
<stop offset="1" stop-color="#F7FC0E"/>
</linearGradient>
<linearGradient id="paint2_linear_165830_3571" x1="6.84084" y1="-22.6376" x2="32.49" y2="-19.3157" gradientUnits="userSpaceOnUse">
<stop stop-color="#FF8D8D"/>
<stop offset="1" stop-color="#F7FC0E"/>
</linearGradient>
</defs>
</svg>
